# xmcd
#
# Track frame offsets:
#	225
#	14511
#	25059
#	37371
#	52011
#	69951
#	79517
#	96455
#	108382
#	122746
#	137868
#	152500
#
# Disc length: 2118 seconds
# Revision: 7
# Processed by: cddbd v1.5.2PL0 Copyright (c) Steve Scherf et al.
# Submitted via: dBpowerAMP V12.0
#
DISCID=a108430c
DTITLE=Kenny Smith - Studebaker
DYEAR=1997
DGENRE=Country
TTITLE0=Studebaker
TTITLE1=Me and My Farmall
TTITLE2=Lay Me to Rest
TTITLE3=Bill Cheatham
TTITLE4=Lay This Broken Heart to Rest
TTITLE5=Snow Shoes
TTITLE6=Preachin' by the Roadside
TTITLE7=Red-Eyed Benny Hen
TTITLE8=New Sunday School
TTITLE9=Amanda's Reel
TTITLE10=One Horse Wagon
TTITLE11=St. Anne's Reel
EXTD=
EXTT0=
EXTT1=
EXTT2=
EXTT3=
EXTT4=
EXTT5=
EXTT6=
EXTT7=
EXTT8=
EXTT9=
EXTT10=
EXTT11=
PLAYORDER=
